<?xml version="1.0" encoding="UTF-8"?>
<svg xmlns="http://www.w3.org/2000/svg" viewBox="0 0 900 1200" role="img" aria-label="NVIDIA GeForce RTX 4090">
  <defs>
    <linearGradient id="frontGrad" x1="0" y1="0" x2="0.9" y2="1">
      <stop offset="0%" stop-color="#27292d" />
      <stop offset="45%" stop-color="#171a1f" />
      <stop offset="100%" stop-color="#11141a" />
    </linearGradient>
    <linearGradient id="sideGrad" x1="0" y1="0" x2="1" y2="1">
      <stop offset="0%" stop-color="#2f3237" />
      <stop offset="100%" stop-color="#12151b" />
    </linearGradient>
    <linearGradient id="topGrad" x1="0" y1="0" x2="1" y2="1">
      <stop offset="0%" stop-color="#3a3d42" />
      <stop offset="100%" stop-color="#191d24" />
    </linearGradient>
    <filter id="boxShadow" x="-20%" y="-20%" width="140%" height="160%">
      <feDropShadow dx="0" dy="26" stdDeviation="20" flood-color="#000000" flood-opacity="0.45" />
    </filter>
  </defs>

  <rect width="900" height="1200" fill="transparent" />
  <ellipse cx="410" cy="1070" rx="290" ry="48" fill="#00000044" />

  <g filter="url(#boxShadow)">
    <polygon points="200,150 620,95 740,165 320,220" fill="url(#topGrad)" />
    <polygon points="620,95 740,165 740,985 620,920" fill="url(#sideGrad)" />
    <polygon points="200,150 620,95 620,920 200,985" fill="url(#frontGrad)" />
  </g>

  <polygon points="620,95 740,165 740,985 620,920" fill="#2dd36f33" />

  
    <path d="M196 855 L304 855 L420 740 L575 740" fill="none" stroke="#2dd36f" stroke-width="16" />
    <path d="M196 700 L308 700 L382 628 L575 628" fill="none" stroke="#2dd36f" stroke-width="14" />
    <path d="M196 520 L296 520 L380 590 L575 590" fill="none" stroke="#2dd36f" stroke-width="12" />
  
  <rect x="340" y="462" width="150" height="58" rx="9" fill="none" stroke="#96f0b8" stroke-width="8" /><circle cx="383" cy="491" r="14" fill="none" stroke="#96f0b8" stroke-width="5" /><circle cx="447" cy="491" r="14" fill="none" stroke="#96f0b8" stroke-width="5" />

  <text x="226" y="930" font-family="Segoe UI, Arial, sans-serif" font-size="46" font-weight="700" fill="#f4f8ff">NVIDIA</text>
  <text x="226" y="978" font-family="Segoe UI, Arial, sans-serif" font-size="28" font-weight="600" fill="#c5d4ec">NVIDIA GEFORCE RTX 4090</text>

  <text x="580" y="842" font-family="Segoe UI, Arial, sans-serif" font-size="78" font-weight="800" fill="#2dd36f">4090</text>
  <text transform="translate(674 346) rotate(90)" font-family="Segoe UI, Arial, sans-serif" font-size="42" font-weight="700" fill="#d8e3f6">NVIDIA</text>
  <text transform="translate(708 346) rotate(90)" font-family="Segoe UI, Arial, sans-serif" font-size="28" font-weight="600" fill="#aebdda">4090</text>
</svg>