<?xml version="1.0" encoding="UTF-8"?>
<svg xmlns="http://www.w3.org/2000/svg" viewBox="0 0 900 1200" role="img" aria-label="Gigabyte B650M Aorus Elite AX">
  <defs>
    <linearGradient id="frontGrad" x1="0" y1="0" x2="0.9" y2="1">
      <stop offset="0%" stop-color="#27292d" />
      <stop offset="45%" stop-color="#171a1f" />
      <stop offset="100%" stop-color="#11141a" />
    </linearGradient>
    <linearGradient id="sideGrad" x1="0" y1="0" x2="1" y2="1">
      <stop offset="0%" stop-color="#2f3237" />
      <stop offset="100%" stop-color="#12151b" />
    </linearGradient>
    <linearGradient id="topGrad" x1="0" y1="0" x2="1" y2="1">
      <stop offset="0%" stop-color="#3a3d42" />
      <stop offset="100%" stop-color="#191d24" />
    </linearGradient>
    <filter id="boxShadow" x="-20%" y="-20%" width="140%" height="160%">
      <feDropShadow dx="0" dy="26" stdDeviation="20" flood-color="#000000" flood-opacity="0.45" />
    </filter>
  </defs>

  <rect width="900" height="1200" fill="transparent" />
  <ellipse cx="410" cy="1070" rx="290" ry="48" fill="#00000044" />

  <g filter="url(#boxShadow)">
    <polygon points="200,150 620,95 740,165 320,220" fill="url(#topGrad)" />
    <polygon points="620,95 740,165 740,985 620,920" fill="url(#sideGrad)" />
    <polygon points="200,150 620,95 620,920 200,985" fill="url(#frontGrad)" />
  </g>

  <polygon points="620,95 740,165 740,985 620,920" fill="#21c1d633" />

  
      <path d="M196 820 L330 820 L455 705 L575 705" fill="none" stroke="#21c1d6" stroke-width="16" />
      <path d="M196 620 L280 620 L360 548" fill="none" stroke="#21c1d6" stroke-width="14" />
      <path d="M196 370 L298 370 L382 448 L516 448" fill="none" stroke="#21c1d6" stroke-width="12" />
    
  <rect x="338" y="448" width="155" height="95" rx="10" fill="none" stroke="#8fe7f1" stroke-width="8" /><rect x="356" y="466" width="42" height="42" rx="6" fill="none" stroke="#8fe7f1" stroke-width="5" />

  <text x="226" y="930" font-family="Segoe UI, Arial, sans-serif" font-size="46" font-weight="700" fill="#f4f8ff">GIGABYTE</text>
  <text x="226" y="978" font-family="Segoe UI, Arial, sans-serif" font-size="28" font-weight="600" fill="#c5d4ec">GIGABYTE B650M AORUS ELITE AX</text>

  <text x="580" y="842" font-family="Segoe UI, Arial, sans-serif" font-size="78" font-weight="800" fill="#21c1d6">650</text>
  <text transform="translate(674 346) rotate(90)" font-family="Segoe UI, Arial, sans-serif" font-size="42" font-weight="700" fill="#d8e3f6">GIGABYTE</text>
  <text transform="translate(708 346) rotate(90)" font-family="Segoe UI, Arial, sans-serif" font-size="28" font-weight="600" fill="#aebdda">650</text>
</svg>