<?xml version="1.0" encoding="UTF-8"?>
<svg xmlns="http://www.w3.org/2000/svg" viewBox="0 0 900 1200" role="img" aria-label="Corsair Vengeance 32GB (2x16) DDR5-6000">
  <defs>
    <linearGradient id="frontGrad" x1="0" y1="0" x2="0.9" y2="1">
      <stop offset="0%" stop-color="#27292d" />
      <stop offset="45%" stop-color="#171a1f" />
      <stop offset="100%" stop-color="#11141a" />
    </linearGradient>
    <linearGradient id="sideGrad" x1="0" y1="0" x2="1" y2="1">
      <stop offset="0%" stop-color="#2f3237" />
      <stop offset="100%" stop-color="#12151b" />
    </linearGradient>
    <linearGradient id="topGrad" x1="0" y1="0" x2="1" y2="1">
      <stop offset="0%" stop-color="#3a3d42" />
      <stop offset="100%" stop-color="#191d24" />
    </linearGradient>
    <filter id="boxShadow" x="-20%" y="-20%" width="140%" height="160%">
      <feDropShadow dx="0" dy="26" stdDeviation="20" flood-color="#000000" flood-opacity="0.45" />
    </filter>
  </defs>

  <rect width="900" height="1200" fill="transparent" />
  <ellipse cx="410" cy="1070" rx="290" ry="48" fill="#00000044" />

  <g filter="url(#boxShadow)">
    <polygon points="200,150 620,95 740,165 320,220" fill="url(#topGrad)" />
    <polygon points="620,95 740,165 740,985 620,920" fill="url(#sideGrad)" />
    <polygon points="200,150 620,95 620,920 200,985" fill="url(#frontGrad)" />
  </g>

  <polygon points="620,95 740,165 740,985 620,920" fill="#ff4f9a33" />

  
      <path d="M196 860 L340 860 L430 760 L575 760" fill="none" stroke="#ff4f9a" stroke-width="16" />
      <path d="M196 690 L300 690 L385 612 L575 612" fill="none" stroke="#ff4f9a" stroke-width="14" />
      <path d="M196 485 L320 485 L410 565 L575 565" fill="none" stroke="#ff4f9a" stroke-width="12" />
    
  <rect x="332" y="476" width="168" height="42" rx="8" fill="none" stroke="#ff9fc7" stroke-width="8" /><line x1="356" y1="520" x2="356" y2="536" stroke="#ff9fc7" stroke-width="4" /><line x1="388" y1="520" x2="388" y2="536" stroke="#ff9fc7" stroke-width="4" /><line x1="420" y1="520" x2="420" y2="536" stroke="#ff9fc7" stroke-width="4" />

  <text x="226" y="930" font-family="Segoe UI, Arial, sans-serif" font-size="46" font-weight="700" fill="#f4f8ff">CORSAIR</text>
  <text x="226" y="978" font-family="Segoe UI, Arial, sans-serif" font-size="28" font-weight="600" fill="#c5d4ec">CORSAIR VENGEANCE 32GB (2X16) DDR.</text>

  <text x="580" y="842" font-family="Segoe UI, Arial, sans-serif" font-size="78" font-weight="800" fill="#ff4f9a">DDR5</text>
  <text transform="translate(674 346) rotate(90)" font-family="Segoe UI, Arial, sans-serif" font-size="42" font-weight="700" fill="#d8e3f6">CORSAIR</text>
  <text transform="translate(708 346) rotate(90)" font-family="Segoe UI, Arial, sans-serif" font-size="28" font-weight="600" fill="#aebdda">DDR5</text>
</svg>